# xmcd CD database file
#
# Track frame offsets:
#	175
#	12902
#	26340
#	42712
#	57380
#	72985
#	90057
#	103145
#	121520
#	131085
#	144957
#	160460
#
# Disc length: 2376 seconds
#
# Revision: 0
# Processed by: cddbd v1.5.2PL0 Copyright (c) Steve Scherf et al.
# Submitted via: CDex 1.51
#
DISCID=9b09460c
DTITLE=Compilation - 10e Countryfestival Cerexhe
DYEAR=1995
DGENRE=Country
TTITLE0=Jambalaya - Les Rétros Dans Le Vent
TTITLE1=The Death Valley Band - The Song Of The Year
TTITLE2=Captain Gumbo - Flammes d'enfer
TTITLE3=Jimmy Lawton - Oklahoma Cat
TTITLE4=Paul Mac Bonvin - La Route Est Longue
TTITLE5=Barbara Leah Meyer - Out On A Limb
TTITLE6=Show Bus - Tequila Sunrise
TTITLE7=Country Postal - Bayou nez pique
TTITLE8=Sarah Jory - How Do
TTITLE9=Gold Rush - Madeleine
TTITLE10=The Dixie Chicks - I'm Falling Again
TTITLE11=Charlie McCoy and United - The Funky Duck
EXTD=YEAR: 1995
EXTT0=
EXTT1=
EXTT2=
EXTT3=
EXTT4=
EXTT5=
EXTT6=
EXTT7=
EXTT8=
EXTT9=
EXTT10=
EXTT11=
PLAYORDER=
